<?xml version="1.0" standalone="no"?>
<svg viewBox="0 0 200 200" xmlns="http://www.w3.org/2000/svg">
  <path fill="#5FC2F4" d="M46,-62.5C60.6,-62.3,73.9,-51.1,79.9,-36.8C86,-22.6,84.7,-5.3,81.4,11.1C78.1,27.4,72.7,42.9,63.1,55.5C53.4,68.1,39.6,77.8,26.4,74.9C13.2,71.9,0.6,56.2,-14.2,50.7C-28.9,45.2,-46,49.9,-56.1,44.9C-66.2,39.9,-69.3,25.2,-68.1,11.8C-66.8,-1.5,-61.1,-13.4,-55.5,-25.2C-49.9,-37,-44.3,-48.6,-35.1,-51.2C-25.8,-53.8,-12.9,-47.4,1.4,-49.6C15.7,-51.8,31.5,-62.6,46,-62.5Z" transform="translate(100 100)" />
</svg>
